<svg xmlns="http://www.w3.org/2000/svg" viewBox="0 0 77.3 61.4"><defs><style>.cls-1{fill:#006e3c;}</style></defs><title>Fichier 5</title><g id="Calque_2" data-name="Calque 2"><g id="Calque_1-2" data-name="Calque 1"><path class="cls-1" d="M13.86,61.4a2,2,0,0,1-.84-.2A1.88,1.88,0,0,1,12,59.3l1-10.8h-.1A12.88,12.88,0,0,1,0,35.64V12.86A12.88,12.88,0,0,1,12.86,0H64.44A12.88,12.88,0,0,1,77.3,12.86V35.64A12.88,12.88,0,0,1,64.44,48.5H28.11L15.18,60.86A1.92,1.92,0,0,1,13.86,61.4Zm-1-58.46a9.93,9.93,0,0,0-9.92,9.92V35.64a9.93,9.93,0,0,0,9.92,9.92h1.23A1.91,1.91,0,0,1,16,47.65l-.87,9.19L26.38,46.09a1.89,1.89,0,0,1,1.32-.53H64.44a9.93,9.93,0,0,0,9.92-9.92V12.86a9.93,9.93,0,0,0-9.92-9.92Z"/><circle class="cls-1" cx="22.76" cy="23.63" r="4.37"/><circle class="cls-1" cx="38.65" cy="23.63" r="4.37"/><circle class="cls-1" cx="54.54" cy="23.63" r="4.37"/></g></g></svg>